# xmcd
#
# Track frame offsets: 
#        150
#        19047
#        33918
#        59364
#        76839
#        101442
#        123947
#        149402
#        167437
#        187856
#        206167
#        225452
#        245102
#        264369
#        285417
#
# Disc length: 4093 seconds
#
# Revision: 0
# Processed by: cddbd v1.5.2PL0 Copyright (c) Steve Scherf et al.
# Submitted via: ExactAudioCopy v1.0b2
#
DISCID=c00ffb0f
DTITLE=Dr.Wu and Friends - An Evening with Dr.Wu
DYEAR=2012
DGENRE=Blues
TTITLE0=I´m a Man
TTITLE1=Why is it so hard
TTITLE2=Jacksboro Highway
TTITLE3=I wanna love You
TTITLE4=Boogie in the Rain
TTITLE5=When I get to Heaven
TTITLE6=That ain´t right
TTITLE7=Come Back Baby
TTITLE8=High Maintenance Baby
TTITLE9=Can´t keep a good an down
TTITLE10=I don´t care Blues
TTITLE11=Bryant Irvine Roasd
TTITLE12=I don´t need no woman like You
TTITLE13=Slow rollin Train
TTITLE14=Bo Diddley Tribute
EXTD=
EXTT0=
EXTT1=
EXTT2=
EXTT3=
EXTT4=
EXTT5=
EXTT6=
EXTT7=
EXTT8=
EXTT9=
EXTT10=
EXTT11=
EXTT12=
EXTT13=
EXTT14=
PLAYORDER=
